<?xml version="1.0" encoding="utf-8" standalone="no"?>
<!DOCTYPE svg PUBLIC "-//W3C//DTD SVG 1.1//EN"
  "http://www.w3.org/Graphics/SVG/1.1/DTD/svg11.dtd">
<svg xmlns:xlink="http://www.w3.org/1999/xlink" width="460.8pt" height="345.6pt" viewBox="0 0 460.8 345.6" xmlns="http://www.w3.org/2000/svg" version="1.1">
 <metadata>
  <rdf:RDF xmlns:dc="http://purl.org/dc/elements/1.1/" xmlns:cc="http://creativecommons.org/ns#" xmlns:rdf="http://www.w3.org/1999/02/22-rdf-syntax-ns#">
   <cc:Work>
    <dc:type rdf:resource="http://purl.org/dc/dcmitype/StillImage"/>
    <dc:date>2024-09-10T19:00:56.358278</dc:date>
    <dc:format>image/svg+xml</dc:format>
    <dc:creator>
     <cc:Agent>
      <dc:title>Matplotlib v3.9.1, https://matplotlib.org/</dc:title>
     </cc:Agent>
    </dc:creator>
   </cc:Work>
  </rdf:RDF>
 </metadata>
 <defs>
  <style type="text/css">*{stroke-linejoin: round; stroke-linecap: butt}</style>
 </defs>
 <g id="figure_1">
  <g id="patch_1">
   <path d="M 0 345.6 
L 460.8 345.6 
L 460.8 0 
L 0 0 
z
" style="fill: #ffffff"/>
  </g>
  <g id="axes_1">
   <g id="patch_2">
    <path d="M 57.6 307.584 
L 414.72 307.584 
L 414.72 41.472 
L 57.6 41.472 
z
" style="fill: #ffffff"/>
   </g>
   <g id="PathCollection_1">
    <defs>
     <path id="m413680534e" d="M 0 3 
C 0.795609 3 1.55874 2.683901 2.12132 2.12132 
C 2.683901 1.55874 3 0.795609 3 0 
C 3 -0.795609 2.683901 -1.55874 2.12132 -2.12132 
C 1.55874 -2.683901 0.795609 -3 0 -3 
C -0.795609 -3 -1.55874 -2.683901 -2.12132 -2.12132 
C -2.683901 -1.55874 -3 -0.795609 -3 0 
C -3 0.795609 -2.683901 1.55874 -2.12132 2.12132 
C -1.55874 2.683901 -0.795609 3 0 3 
z
" style="stroke: #0000ff"/>
    </defs>
    <g clip-path="url(#pdfe468c1ac)">
     <use xlink:href="#m413680534e" x="73.832727" y="86.43206" style="fill: #0000ff; stroke: #0000ff"/>
     <use xlink:href="#m413680534e" x="77.112066" y="190.049563" style="fill: #0000ff; stroke: #0000ff"/>
     <use xlink:href="#m413680534e" x="80.391405" y="271.616911" style="fill: #0000ff; stroke: #0000ff"/>
     <use xlink:href="#m413680534e" x="83.670744" y="256.141461" style="fill: #0000ff; stroke: #0000ff"/>
     <use xlink:href="#m413680534e" x="86.950083" y="157.851269" style="fill: #0000ff; stroke: #0000ff"/>
     <use xlink:href="#m413680534e" x="90.229421" y="67.113886" style="fill: #0000ff; stroke: #0000ff"/>
     <use xlink:href="#m413680534e" x="93.50876" y="67.352842" style="fill: #0000ff; stroke: #0000ff"/>
     <use xlink:href="#m413680534e" x="96.788099" y="158.348443" style="fill: #0000ff; stroke: #0000ff"/>
     <use xlink:href="#m413680534e" x="100.067438" y="256.439753" style="fill: #0000ff; stroke: #0000ff"/>
     <use xlink:href="#m413680534e" x="103.346777" y="271.442073" style="fill: #0000ff; stroke: #0000ff"/>
     <use xlink:href="#m413680534e" x="106.626116" y="189.562341" style="fill: #0000ff; stroke: #0000ff"/>
     <use xlink:href="#m413680534e" x="109.905455" y="86.080403" style="fill: #0000ff; stroke: #0000ff"/>
     <use xlink:href="#m413680534e" x="113.184793" y="56.137077" style="fill: #0000ff; stroke: #0000ff"/>
     <use xlink:href="#m413680534e" x="116.464132" y="127.262118" style="fill: #0000ff; stroke: #0000ff"/>
     <use xlink:href="#m413680534e" x="119.743471" y="234.063492" style="fill: #0000ff; stroke: #0000ff"/>
     <use xlink:href="#m413680534e" x="123.02281" y="278.348508" style="fill: #0000ff; stroke: #0000ff"/>
     <use xlink:href="#m413680534e" x="126.302149" y="219.401726" style="fill: #0000ff; stroke: #0000ff"/>
     <use xlink:href="#m413680534e" x="129.581488" y="111.418546" style="fill: #0000ff; stroke: #0000ff"/>
     <use xlink:href="#m413680534e" x="132.860826" y="53.678206" style="fill: #0000ff; stroke: #0000ff"/>
     <use xlink:href="#m413680534e" x="136.140165" y="99.266907" style="fill: #0000ff; stroke: #0000ff"/>
     <use xlink:href="#m413680534e" x="139.419504" y="206.270609" style="fill: #0000ff; stroke: #0000ff"/>
     <use xlink:href="#m413680534e" x="142.698843" y="276.310601" style="fill: #0000ff; stroke: #0000ff"/>
     <use xlink:href="#m413680534e" x="145.978182" y="244.992437" style="fill: #0000ff; stroke: #0000ff"/>
     <use xlink:href="#m413680534e" x="149.257521" y="141.109894" style="fill: #0000ff; stroke: #0000ff"/>
     <use xlink:href="#m413680534e" x="152.53686" y="60.172102" style="fill: #0000ff; stroke: #0000ff"/>
     <use xlink:href="#m413680534e" x="155.816198" y="76.592894" style="fill: #0000ff; stroke: #0000ff"/>
     <use xlink:href="#m413680534e" x="159.095537" y="175.275069" style="fill: #0000ff; stroke: #0000ff"/>
     <use xlink:href="#m413680534e" x="162.374876" y="265.490692" style="fill: #0000ff; stroke: #0000ff"/>
     <use xlink:href="#m413680534e" x="165.654215" y="264.295933" style="fill: #0000ff; stroke: #0000ff"/>
     <use xlink:href="#m413680534e" x="168.933554" y="172.78925" style="fill: #0000ff; stroke: #0000ff"/>
     <use xlink:href="#m413680534e" x="172.212893" y="75.101464" style="fill: #0000ff; stroke: #0000ff"/>
     <use xlink:href="#m413680534e" x="175.492231" y="61.046275" style="fill: #0000ff; stroke: #0000ff"/>
     <use xlink:href="#m413680534e" x="178.77157" y="143.54596" style="fill: #0000ff; stroke: #0000ff"/>
     <use xlink:href="#m413680534e" x="182.050909" y="246.750688" style="fill: #0000ff; stroke: #0000ff"/>
     <use xlink:href="#m413680534e" x="185.330248" y="275.774508" style="fill: #0000ff; stroke: #0000ff"/>
     <use xlink:href="#m413680534e" x="188.609587" y="203.933055" style="fill: #0000ff; stroke: #0000ff"/>
     <use xlink:href="#m413680534e" x="191.888926" y="97.277028" style="fill: #0000ff; stroke: #0000ff"/>
     <use xlink:href="#m413680534e" x="195.168264" y="53.865487" style="fill: #0000ff; stroke: #0000ff"/>
     <use xlink:href="#m413680534e" x="198.447603" y="113.610803" style="fill: #0000ff; stroke: #0000ff"/>
     <use xlink:href="#m413680534e" x="201.726942" y="221.583407" style="fill: #0000ff; stroke: #0000ff"/>
     <use xlink:href="#m413680534e" x="205.006281" y="278.513786" style="fill: #0000ff; stroke: #0000ff"/>
     <use xlink:href="#m413680534e" x="208.28562" y="232.060411" style="fill: #0000ff; stroke: #0000ff"/>
     <use xlink:href="#m413680534e" x="211.564959" y="124.932302" style="fill: #0000ff; stroke: #0000ff"/>
     <use xlink:href="#m413680534e" x="214.844298" y="55.622547" style="fill: #0000ff; stroke: #0000ff"/>
     <use xlink:href="#m413680534e" x="218.123636" y="87.854216" style="fill: #0000ff; stroke: #0000ff"/>
     <use xlink:href="#m413680534e" x="221.402975" y="191.993661" style="fill: #0000ff; stroke: #0000ff"/>
     <use xlink:href="#m413680534e" x="224.682314" y="272.295556" style="fill: #0000ff; stroke: #0000ff"/>
     <use xlink:href="#m413680534e" x="227.961653" y="254.93071" style="fill: #0000ff; stroke: #0000ff"/>
     <use xlink:href="#m413680534e" x="231.240992" y="155.864281" style="fill: #0000ff; stroke: #0000ff"/>
     <use xlink:href="#m413680534e" x="234.520331" y="66.177488" style="fill: #0000ff; stroke: #0000ff"/>
     <use xlink:href="#m413680534e" x="237.799669" y="68.327955" style="fill: #0000ff; stroke: #0000ff"/>
     <use xlink:href="#m413680534e" x="241.079008" y="160.338552" style="fill: #0000ff; stroke: #0000ff"/>
     <use xlink:href="#m413680534e" x="244.358347" y="257.615161" style="fill: #0000ff; stroke: #0000ff"/>
     <use xlink:href="#m413680534e" x="247.637686" y="270.722116" style="fill: #0000ff; stroke: #0000ff"/>
     <use xlink:href="#m413680534e" x="250.917025" y="187.608943" style="fill: #0000ff; stroke: #0000ff"/>
     <use xlink:href="#m413680534e" x="254.196364" y="84.68951" style="fill: #0000ff; stroke: #0000ff"/>
     <use xlink:href="#m413680534e" x="257.475702" y="56.587469" style="fill: #0000ff; stroke: #0000ff"/>
     <use xlink:href="#m413680534e" x="260.755041" y="129.139707" style="fill: #0000ff; stroke: #0000ff"/>
     <use xlink:href="#m413680534e" x="264.03438" y="235.64203" style="fill: #0000ff; stroke: #0000ff"/>
     <use xlink:href="#m413680534e" x="267.313719" y="278.176695" style="fill: #0000ff; stroke: #0000ff"/>
     <use xlink:href="#m413680534e" x="270.593058" y="217.637526" style="fill: #0000ff; stroke: #0000ff"/>
     <use xlink:href="#m413680534e" x="273.872397" y="109.683956" style="fill: #0000ff; stroke: #0000ff"/>
     <use xlink:href="#m413680534e" x="277.151736" y="53.568" style="fill: #0000ff; stroke: #0000ff"/>
     <use xlink:href="#m413680534e" x="280.431074" y="100.882409" style="fill: #0000ff; stroke: #0000ff"/>
     <use xlink:href="#m413680534e" x="283.710413" y="208.126533" style="fill: #0000ff; stroke: #0000ff"/>
     <use xlink:href="#m413680534e" x="286.989752" y="276.70062" style="fill: #0000ff; stroke: #0000ff"/>
     <use xlink:href="#m413680534e" x="290.269091" y="243.55797" style="fill: #0000ff; stroke: #0000ff"/>
     <use xlink:href="#m413680534e" x="293.54843" y="139.169783" style="fill: #0000ff; stroke: #0000ff"/>
     <use xlink:href="#m413680534e" x="296.827769" y="59.510076" style="fill: #0000ff; stroke: #0000ff"/>
     <use xlink:href="#m413680534e" x="300.107107" y="77.817617" style="fill: #0000ff; stroke: #0000ff"/>
     <use xlink:href="#m413680534e" x="303.386446" y="177.260537" style="fill: #0000ff; stroke: #0000ff"/>
     <use xlink:href="#m413680534e" x="306.665785" y="266.411473" style="fill: #0000ff; stroke: #0000ff"/>
     <use xlink:href="#m413680534e" x="309.945124" y="263.305467" style="fill: #0000ff; stroke: #0000ff"/>
     <use xlink:href="#m413680534e" x="313.224463" y="170.798166" style="fill: #0000ff; stroke: #0000ff"/>
     <use xlink:href="#m413680534e" x="316.503802" y="73.940355" style="fill: #0000ff; stroke: #0000ff"/>
     <use xlink:href="#m413680534e" x="319.78314" y="61.78266" style="fill: #0000ff; stroke: #0000ff"/>
     <use xlink:href="#m413680534e" x="323.062479" y="145.502809" style="fill: #0000ff; stroke: #0000ff"/>
     <use xlink:href="#m413680534e" x="326.341818" y="248.128883" style="fill: #0000ff; stroke: #0000ff"/>
     <use xlink:href="#m413680534e" x="329.621157" y="275.306943" style="fill: #0000ff; stroke: #0000ff"/>
     <use xlink:href="#m413680534e" x="332.900496" y="202.049606" style="fill: #0000ff; stroke: #0000ff"/>
     <use xlink:href="#m413680534e" x="336.179835" y="95.70933" style="fill: #0000ff; stroke: #0000ff"/>
     <use xlink:href="#m413680534e" x="339.459174" y="54.054874" style="fill: #0000ff; stroke: #0000ff"/>
     <use xlink:href="#m413680534e" x="342.738512" y="115.383153" style="fill: #0000ff; stroke: #0000ff"/>
     <use xlink:href="#m413680534e" x="346.017851" y="223.30923" style="fill: #0000ff; stroke: #0000ff"/>
     <use xlink:href="#m413680534e" x="349.29719" y="278.606368" style="fill: #0000ff; stroke: #0000ff"/>
     <use xlink:href="#m413680534e" x="352.576529" y="230.434633" style="fill: #0000ff; stroke: #0000ff"/>
     <use xlink:href="#m413680534e" x="355.855868" y="123.082896" style="fill: #0000ff; stroke: #0000ff"/>
     <use xlink:href="#m413680534e" x="359.135207" y="55.249849" style="fill: #0000ff; stroke: #0000ff"/>
     <use xlink:href="#m413680534e" x="362.414545" y="89.300883" style="fill: #0000ff; stroke: #0000ff"/>
     <use xlink:href="#m413680534e" x="365.693884" y="193.929634" style="fill: #0000ff; stroke: #0000ff"/>
     <use xlink:href="#m413680534e" x="368.973223" y="272.940911" style="fill: #0000ff; stroke: #0000ff"/>
     <use xlink:href="#m413680534e" x="372.252562" y="253.69211" style="fill: #0000ff; stroke: #0000ff"/>
     <use xlink:href="#m413680534e" x="375.531901" y="153.88049" style="fill: #0000ff; stroke: #0000ff"/>
     <use xlink:href="#m413680534e" x="378.81124" y="65.272394" style="fill: #0000ff; stroke: #0000ff"/>
     <use xlink:href="#m413680534e" x="382.090579" y="69.333697" style="fill: #0000ff; stroke: #0000ff"/>
     <use xlink:href="#m413680534e" x="385.369917" y="162.330455" style="fill: #0000ff; stroke: #0000ff"/>
     <use xlink:href="#m413680534e" x="388.649256" y="258.761879" style="fill: #0000ff; stroke: #0000ff"/>
     <use xlink:href="#m413680534e" x="391.928595" y="269.969361" style="fill: #0000ff; stroke: #0000ff"/>
     <use xlink:href="#m413680534e" x="395.207934" y="185.648795" style="fill: #0000ff; stroke: #0000ff"/>
     <use xlink:href="#m413680534e" x="398.487273" y="83.32412" style="fill: #0000ff; stroke: #0000ff"/>
    </g>
   </g>
   <g id="matplotlib.axis_1">
    <g id="xtick_1">
     <g id="line2d_1">
      <defs>
       <path id="m9d1ead79cd" d="M 0 0 
L 0 3.5 
" style="stroke: #000000; stroke-width: 0.8"/>
      </defs>
      <g>
       <use xlink:href="#m9d1ead79cd" x="73.832727" y="307.584" style="stroke: #000000; stroke-width: 0.8"/>
      </g>
     </g>
     <g id="text_1">
      <!-- 0 -->
      <g transform="translate(70.651477 322.182437) scale(0.1 -0.1)">
       <defs>
        <path id="DejaVuSans-30" d="M 2034 4250 
Q 1547 4250 1301 3770 
Q 1056 3291 1056 2328 
Q 1056 1369 1301 889 
Q 1547 409 2034 409 
Q 2525 409 2770 889 
Q 3016 1369 3016 2328 
Q 3016 3291 2770 3770 
Q 2525 4250 2034 4250 
z
M 2034 4750 
Q 2819 4750 3233 4129 
Q 3647 3509 3647 2328 
Q 3647 1150 3233 529 
Q 2819 -91 2034 -91 
Q 1250 -91 836 529 
Q 422 1150 422 2328 
Q 422 3509 836 4129 
Q 1250 4750 2034 4750 
z
" transform="scale(0.015625)"/>
       </defs>
       <use xlink:href="#DejaVuSans-30"/>
      </g>
     </g>
    </g>
    <g id="xtick_2">
     <g id="line2d_2">
      <g>
       <use xlink:href="#m9d1ead79cd" x="139.419504" y="307.584" style="stroke: #000000; stroke-width: 0.8"/>
      </g>
     </g>
     <g id="text_2">
      <!-- 20 -->
      <g transform="translate(133.057004 322.182437) scale(0.1 -0.1)">
       <defs>
        <path id="DejaVuSans-32" d="M 1228 531 
L 3431 531 
L 3431 0 
L 469 0 
L 469 531 
Q 828 903 1448 1529 
Q 2069 2156 2228 2338 
Q 2531 2678 2651 2914 
Q 2772 3150 2772 3378 
Q 2772 3750 2511 3984 
Q 2250 4219 1831 4219 
Q 1534 4219 1204 4116 
Q 875 4013 500 3803 
L 500 4441 
Q 881 4594 1212 4672 
Q 1544 4750 1819 4750 
Q 2544 4750 2975 4387 
Q 3406 4025 3406 3419 
Q 3406 3131 3298 2873 
Q 3191 2616 2906 2266 
Q 2828 2175 2409 1742 
Q 1991 1309 1228 531 
z
" transform="scale(0.015625)"/>
       </defs>
       <use xlink:href="#DejaVuSans-32"/>
       <use xlink:href="#DejaVuSans-30" x="63.623047"/>
      </g>
     </g>
    </g>
    <g id="xtick_3">
     <g id="line2d_3">
      <g>
       <use xlink:href="#m9d1ead79cd" x="205.006281" y="307.584" style="stroke: #000000; stroke-width: 0.8"/>
      </g>
     </g>
     <g id="text_3">
      <!-- 40 -->
      <g transform="translate(198.643781 322.182437) scale(0.1 -0.1)">
       <defs>
        <path id="DejaVuSans-34" d="M 2419 4116 
L 825 1625 
L 2419 1625 
L 2419 4116 
z
M 2253 4666 
L 3047 4666 
L 3047 1625 
L 3713 1625 
L 3713 1100 
L 3047 1100 
L 3047 0 
L 2419 0 
L 2419 1100 
L 313 1100 
L 313 1709 
L 2253 4666 
z
" transform="scale(0.015625)"/>
       </defs>
       <use xlink:href="#DejaVuSans-34"/>
       <use xlink:href="#DejaVuSans-30" x="63.623047"/>
      </g>
     </g>
    </g>
    <g id="xtick_4">
     <g id="line2d_4">
      <g>
       <use xlink:href="#m9d1ead79cd" x="270.593058" y="307.584" style="stroke: #000000; stroke-width: 0.8"/>
      </g>
     </g>
     <g id="text_4">
      <!-- 60 -->
      <g transform="translate(264.230558 322.182437) scale(0.1 -0.1)">
       <defs>
        <path id="DejaVuSans-36" d="M 2113 2584 
Q 1688 2584 1439 2293 
Q 1191 2003 1191 1497 
Q 1191 994 1439 701 
Q 1688 409 2113 409 
Q 2538 409 2786 701 
Q 3034 994 3034 1497 
Q 3034 2003 2786 2293 
Q 2538 2584 2113 2584 
z
M 3366 4563 
L 3366 3988 
Q 3128 4100 2886 4159 
Q 2644 4219 2406 4219 
Q 1781 4219 1451 3797 
Q 1122 3375 1075 2522 
Q 1259 2794 1537 2939 
Q 1816 3084 2150 3084 
Q 2853 3084 3261 2657 
Q 3669 2231 3669 1497 
Q 3669 778 3244 343 
Q 2819 -91 2113 -91 
Q 1303 -91 875 529 
Q 447 1150 447 2328 
Q 447 3434 972 4092 
Q 1497 4750 2381 4750 
Q 2619 4750 2861 4703 
Q 3103 4656 3366 4563 
z
" transform="scale(0.015625)"/>
       </defs>
       <use xlink:href="#DejaVuSans-36"/>
       <use xlink:href="#DejaVuSans-30" x="63.623047"/>
      </g>
     </g>
    </g>
    <g id="xtick_5">
     <g id="line2d_5">
      <g>
       <use xlink:href="#m9d1ead79cd" x="336.179835" y="307.584" style="stroke: #000000; stroke-width: 0.8"/>
      </g>
     </g>
     <g id="text_5">
      <!-- 80 -->
      <g transform="translate(329.817335 322.182437) scale(0.1 -0.1)">
       <defs>
        <path id="DejaVuSans-38" d="M 2034 2216 
Q 1584 2216 1326 1975 
Q 1069 1734 1069 1313 
Q 1069 891 1326 650 
Q 1584 409 2034 409 
Q 2484 409 2743 651 
Q 3003 894 3003 1313 
Q 3003 1734 2745 1975 
Q 2488 2216 2034 2216 
z
M 1403 2484 
Q 997 2584 770 2862 
Q 544 3141 544 3541 
Q 544 4100 942 4425 
Q 1341 4750 2034 4750 
Q 2731 4750 3128 4425 
Q 3525 4100 3525 3541 
Q 3525 3141 3298 2862 
Q 3072 2584 2669 2484 
Q 3125 2378 3379 2068 
Q 3634 1759 3634 1313 
Q 3634 634 3220 271 
Q 2806 -91 2034 -91 
Q 1263 -91 848 271 
Q 434 634 434 1313 
Q 434 1759 690 2068 
Q 947 2378 1403 2484 
z
M 1172 3481 
Q 1172 3119 1398 2916 
Q 1625 2713 2034 2713 
Q 2441 2713 2670 2916 
Q 2900 3119 2900 3481 
Q 2900 3844 2670 4047 
Q 2441 4250 2034 4250 
Q 1625 4250 1398 4047 
Q 1172 3844 1172 3481 
z
" transform="scale(0.015625)"/>
       </defs>
       <use xlink:href="#DejaVuSans-38"/>
       <use xlink:href="#DejaVuSans-30" x="63.623047"/>
      </g>
     </g>
    </g>
    <g id="xtick_6">
     <g id="line2d_6">
      <g>
       <use xlink:href="#m9d1ead79cd" x="401.766612" y="307.584" style="stroke: #000000; stroke-width: 0.8"/>
      </g>
     </g>
     <g id="text_6">
      <!-- 100 -->
      <g transform="translate(392.222862 322.182437) scale(0.1 -0.1)">
       <defs>
        <path id="DejaVuSans-31" d="M 794 531 
L 1825 531 
L 1825 4091 
L 703 3866 
L 703 4441 
L 1819 4666 
L 2450 4666 
L 2450 531 
L 3481 531 
L 3481 0 
L 794 0 
L 794 531 
z
" transform="scale(0.015625)"/>
       </defs>
       <use xlink:href="#DejaVuSans-31"/>
       <use xlink:href="#DejaVuSans-30" x="63.623047"/>
       <use xlink:href="#DejaVuSans-30" x="127.246094"/>
      </g>
     </g>
    </g>
    <g id="text_7">
     <!-- X -->
     <g transform="translate(232.735 335.860562) scale(0.1 -0.1)">
      <defs>
       <path id="DejaVuSans-58" d="M 403 4666 
L 1081 4666 
L 2241 2931 
L 3406 4666 
L 4084 4666 
L 2584 2425 
L 4184 0 
L 3506 0 
L 2194 1984 
L 872 0 
L 191 0 
L 1856 2491 
L 403 4666 
z
" transform="scale(0.015625)"/>
      </defs>
      <use xlink:href="#DejaVuSans-58"/>
     </g>
    </g>
   </g>
   <g id="matplotlib.axis_2">
    <g id="ytick_1">
     <g id="line2d_7">
      <defs>
       <path id="m6e669bbd79" d="M 0 0 
L -3.5 0 
" style="stroke: #000000; stroke-width: 0.8"/>
      </defs>
      <g>
       <use xlink:href="#m6e669bbd79" x="57.6" y="278.685982" style="stroke: #000000; stroke-width: 0.8"/>
      </g>
     </g>
     <g id="text_8">
      <!-- 20 -->
      <g transform="translate(37.875 282.485201) scale(0.1 -0.1)">
       <use xlink:href="#DejaVuSans-32"/>
       <use xlink:href="#DejaVuSans-30" x="63.623047"/>
      </g>
     </g>
    </g>
    <g id="ytick_2">
     <g id="line2d_8">
      <g>
       <use xlink:href="#m6e669bbd79" x="57.6" y="241.146069" style="stroke: #000000; stroke-width: 0.8"/>
      </g>
     </g>
     <g id="text_9">
      <!-- 30 -->
      <g transform="translate(37.875 244.945287) scale(0.1 -0.1)">
       <defs>
        <path id="DejaVuSans-33" d="M 2597 2516 
Q 3050 2419 3304 2112 
Q 3559 1806 3559 1356 
Q 3559 666 3084 287 
Q 2609 -91 1734 -91 
Q 1441 -91 1130 -33 
Q 819 25 488 141 
L 488 750 
Q 750 597 1062 519 
Q 1375 441 1716 441 
Q 2309 441 2620 675 
Q 2931 909 2931 1356 
Q 2931 1769 2642 2001 
Q 2353 2234 1838 2234 
L 1294 2234 
L 1294 2753 
L 1863 2753 
Q 2328 2753 2575 2939 
Q 2822 3125 2822 3475 
Q 2822 3834 2567 4026 
Q 2313 4219 1838 4219 
Q 1578 4219 1281 4162 
Q 984 4106 628 3988 
L 628 4550 
Q 988 4650 1302 4700 
Q 1616 4750 1894 4750 
Q 2613 4750 3031 4423 
Q 3450 4097 3450 3541 
Q 3450 3153 3228 2886 
Q 3006 2619 2597 2516 
z
" transform="scale(0.015625)"/>
       </defs>
       <use xlink:href="#DejaVuSans-33"/>
       <use xlink:href="#DejaVuSans-30" x="63.623047"/>
      </g>
     </g>
    </g>
    <g id="ytick_3">
     <g id="line2d_9">
      <g>
       <use xlink:href="#m6e669bbd79" x="57.6" y="203.606155" style="stroke: #000000; stroke-width: 0.8"/>
      </g>
     </g>
     <g id="text_10">
      <!-- 40 -->
      <g transform="translate(37.875 207.405374) scale(0.1 -0.1)">
       <use xlink:href="#DejaVuSans-34"/>
       <use xlink:href="#DejaVuSans-30" x="63.623047"/>
      </g>
     </g>
    </g>
    <g id="ytick_4">
     <g id="line2d_10">
      <g>
       <use xlink:href="#m6e669bbd79" x="57.6" y="166.066242" style="stroke: #000000; stroke-width: 0.8"/>
      </g>
     </g>
     <g id="text_11">
      <!-- 50 -->
      <g transform="translate(37.875 169.865461) scale(0.1 -0.1)">
       <defs>
        <path id="DejaVuSans-35" d="M 691 4666 
L 3169 4666 
L 3169 4134 
L 1269 4134 
L 1269 2991 
Q 1406 3038 1543 3061 
Q 1681 3084 1819 3084 
Q 2600 3084 3056 2656 
Q 3513 2228 3513 1497 
Q 3513 744 3044 326 
Q 2575 -91 1722 -91 
Q 1428 -91 1123 -41 
Q 819 9 494 109 
L 494 744 
Q 775 591 1075 516 
Q 1375 441 1709 441 
Q 2250 441 2565 725 
Q 2881 1009 2881 1497 
Q 2881 1984 2565 2268 
Q 2250 2553 1709 2553 
Q 1456 2553 1204 2497 
Q 953 2441 691 2322 
L 691 4666 
z
" transform="scale(0.015625)"/>
       </defs>
       <use xlink:href="#DejaVuSans-35"/>
       <use xlink:href="#DejaVuSans-30" x="63.623047"/>
      </g>
     </g>
    </g>
    <g id="ytick_5">
     <g id="line2d_11">
      <g>
       <use xlink:href="#m6e669bbd79" x="57.6" y="128.526329" style="stroke: #000000; stroke-width: 0.8"/>
      </g>
     </g>
     <g id="text_12">
      <!-- 60 -->
      <g transform="translate(37.875 132.325547) scale(0.1 -0.1)">
       <use xlink:href="#DejaVuSans-36"/>
       <use xlink:href="#DejaVuSans-30" x="63.623047"/>
      </g>
     </g>
    </g>
    <g id="ytick_6">
     <g id="line2d_12">
      <g>
       <use xlink:href="#m6e669bbd79" x="57.6" y="90.986415" style="stroke: #000000; stroke-width: 0.8"/>
      </g>
     </g>
     <g id="text_13">
      <!-- 70 -->
      <g transform="translate(37.875 94.785634) scale(0.1 -0.1)">
       <defs>
        <path id="DejaVuSans-37" d="M 525 4666 
L 3525 4666 
L 3525 4397 
L 1831 0 
L 1172 0 
L 2766 4134 
L 525 4134 
L 525 4666 
z
" transform="scale(0.015625)"/>
       </defs>
       <use xlink:href="#DejaVuSans-37"/>
       <use xlink:href="#DejaVuSans-30" x="63.623047"/>
      </g>
     </g>
    </g>
    <g id="ytick_7">
     <g id="line2d_13">
      <g>
       <use xlink:href="#m6e669bbd79" x="57.6" y="53.446502" style="stroke: #000000; stroke-width: 0.8"/>
      </g>
     </g>
     <g id="text_14">
      <!-- 80 -->
      <g transform="translate(37.875 57.245721) scale(0.1 -0.1)">
       <use xlink:href="#DejaVuSans-38"/>
       <use xlink:href="#DejaVuSans-30" x="63.623047"/>
      </g>
     </g>
    </g>
    <g id="text_15">
     <!-- Y -->
     <g transform="translate(31.795313 177.581906) rotate(-90) scale(0.1 -0.1)">
      <defs>
       <path id="DejaVuSans-59" d="M -13 4666 
L 666 4666 
L 1959 2747 
L 3244 4666 
L 3922 4666 
L 2272 2222 
L 2272 0 
L 1638 0 
L 1638 2222 
L -13 4666 
z
" transform="scale(0.015625)"/>
      </defs>
      <use xlink:href="#DejaVuSans-59"/>
     </g>
    </g>
   </g>
   <g id="line2d_14">
    <path d="M 73.832727 167.681249 
L 77.112066 169.169544 
L 80.391405 130.765544 
L 83.670744 256.067958 
L 86.950083 182.418444 
L 90.229421 67.107317 
L 93.50876 62.859548 
L 96.788099 158.270725 
L 100.067438 154.50117 
L 103.346777 271.430697 
L 106.626116 214.692986 
L 109.905455 86.310882 
L 113.184793 166.987027 
L 116.464132 127.090935 
L 119.743471 265.307622 
L 123.02281 278.22715 
L 126.302149 188.057027 
L 129.581488 111.219074 
L 132.860826 91.063223 
L 136.140165 99.310086 
L 139.419504 213.454769 
L 142.698843 276.201532 
L 145.978182 228.485261 
L 149.257521 141.239939 
L 152.53686 126.30643 
L 155.816198 76.711298 
L 159.095537 136.185277 
L 162.374876 265.457152 
L 165.654215 247.690026 
L 168.933554 172.778179 
L 172.212893 118.441045 
L 175.492231 61.021483 
L 178.77157 225.769511 
L 182.050909 246.916433 
L 185.330248 233.57625 
L 188.609587 203.98788 
L 191.888926 158.926243 
L 195.168264 53.831225 
L 198.447603 139.925519 
L 201.726942 221.615016 
L 205.006281 150.836173 
L 208.28562 231.891678 
L 211.564959 107.483424 
L 214.844298 55.558317 
L 218.123636 133.241454 
L 221.402975 191.81083 
L 224.682314 218.661216 
L 227.961653 254.977633 
L 231.240992 162.843828 
L 234.520331 66.347171 
L 237.799669 119.886525 
L 241.079008 160.265212 
L 244.358347 122.058944 
L 247.637686 270.782906 
L 250.917025 145.65763 
L 254.196364 84.768178 
L 257.475702 149.207653 
L 260.755041 129.268828 
L 264.03438 179.589451 
L 267.313719 278.376915 
L 270.593058 164.411883 
L 273.872397 109.584067 
L 277.151736 130.11312 
L 280.431074 100.893118 
L 283.710413 161.693237 
L 286.989752 276.551689 
L 290.269091 236.046859 
L 293.54843 139.294547 
L 296.827769 87.812301 
L 300.107107 77.991018 
L 303.386446 184.440071 
L 306.665785 266.320627 
L 309.945124 221.773065 
L 313.224463 170.936876 
L 316.503802 81.23565 
L 319.78314 61.713702 
L 323.062479 153.978298 
L 326.341818 248.033464 
L 329.621157 259.404694 
L 332.900496 202.207344 
L 336.179835 161.182568 
L 339.459174 54.049995 
L 342.738512 195.207952 
L 346.017851 223.228641 
L 349.29719 193.254745 
L 352.576529 230.340435 
L 355.855868 129.760962 
L 359.135207 55.432181 
L 362.414545 185.861006 
L 365.693884 193.891443 
L 368.973223 295.488 
L 372.252562 253.611046 
L 375.531901 127.435581 
L 378.81124 65.370941 
L 382.090579 79.485233 
L 385.369917 162.290777 
L 388.649256 167.133637 
L 391.928595 269.933687 
L 395.207934 196.73939 
L 398.487273 83.538796 
" clip-path="url(#pdfe468c1ac)" style="fill: none; stroke: #008000; stroke-width: 1.5; stroke-linecap: square"/>
   </g>
   <g id="patch_3">
    <path d="M 57.6 307.584 
L 57.6 41.472 
" style="fill: none; stroke: #000000; stroke-width: 0.8; stroke-linejoin: miter; stroke-linecap: square"/>
   </g>
   <g id="patch_4">
    <path d="M 414.72 307.584 
L 414.72 41.472 
" style="fill: none; stroke: #000000; stroke-width: 0.8; stroke-linejoin: miter; stroke-linecap: square"/>
   </g>
   <g id="patch_5">
    <path d="M 57.6 307.584 
L 414.72 307.584 
" style="fill: none; stroke: #000000; stroke-width: 0.8; stroke-linejoin: miter; stroke-linecap: square"/>
   </g>
   <g id="patch_6">
    <path d="M 57.6 41.472 
L 414.72 41.472 
" style="fill: none; stroke: #000000; stroke-width: 0.8; stroke-linejoin: miter; stroke-linecap: square"/>
   </g>
   <g id="text_16">
    <!-- Polynomial Regression - Degree 100 -->
    <g transform="translate(127.645313 35.472) scale(0.12 -0.12)">
     <defs>
      <path id="DejaVuSans-50" d="M 1259 4147 
L 1259 2394 
L 2053 2394 
Q 2494 2394 2734 2622 
Q 2975 2850 2975 3272 
Q 2975 3691 2734 3919 
Q 2494 4147 2053 4147 
L 1259 4147 
z
M 628 4666 
L 2053 4666 
Q 2838 4666 3239 4311 
Q 3641 3956 3641 3272 
Q 3641 2581 3239 2228 
Q 2838 1875 2053 1875 
L 1259 1875 
L 1259 0 
L 628 0 
L 628 4666 
z
" transform="scale(0.015625)"/>
      <path id="DejaVuSans-6f" d="M 1959 3097 
Q 1497 3097 1228 2736 
Q 959 2375 959 1747 
Q 959 1119 1226 758 
Q 1494 397 1959 397 
Q 2419 397 2687 759 
Q 2956 1122 2956 1747 
Q 2956 2369 2687 2733 
Q 2419 3097 1959 3097 
z
M 1959 3584 
Q 2709 3584 3137 3096 
Q 3566 2609 3566 1747 
Q 3566 888 3137 398 
Q 2709 -91 1959 -91 
Q 1206 -91 779 398 
Q 353 888 353 1747 
Q 353 2609 779 3096 
Q 1206 3584 1959 3584 
z
" transform="scale(0.015625)"/>
      <path id="DejaVuSans-6c" d="M 603 4863 
L 1178 4863 
L 1178 0 
L 603 0 
L 603 4863 
z
" transform="scale(0.015625)"/>
      <path id="DejaVuSans-79" d="M 2059 -325 
Q 1816 -950 1584 -1140 
Q 1353 -1331 966 -1331 
L 506 -1331 
L 506 -850 
L 844 -850 
Q 1081 -850 1212 -737 
Q 1344 -625 1503 -206 
L 1606 56 
L 191 3500 
L 800 3500 
L 1894 763 
L 2988 3500 
L 3597 3500 
L 2059 -325 
z
" transform="scale(0.015625)"/>
      <path id="DejaVuSans-6e" d="M 3513 2113 
L 3513 0 
L 2938 0 
L 2938 2094 
Q 2938 2591 2744 2837 
Q 2550 3084 2163 3084 
Q 1697 3084 1428 2787 
Q 1159 2491 1159 1978 
L 1159 0 
L 581 0 
L 581 3500 
L 1159 3500 
L 1159 2956 
Q 1366 3272 1645 3428 
Q 1925 3584 2291 3584 
Q 2894 3584 3203 3211 
Q 3513 2838 3513 2113 
z
" transform="scale(0.015625)"/>
      <path id="DejaVuSans-6d" d="M 3328 2828 
Q 3544 3216 3844 3400 
Q 4144 3584 4550 3584 
Q 5097 3584 5394 3201 
Q 5691 2819 5691 2113 
L 5691 0 
L 5113 0 
L 5113 2094 
Q 5113 2597 4934 2840 
Q 4756 3084 4391 3084 
Q 3944 3084 3684 2787 
Q 3425 2491 3425 1978 
L 3425 0 
L 2847 0 
L 2847 2094 
Q 2847 2600 2669 2842 
Q 2491 3084 2119 3084 
Q 1678 3084 1418 2786 
Q 1159 2488 1159 1978 
L 1159 0 
L 581 0 
L 581 3500 
L 1159 3500 
L 1159 2956 
Q 1356 3278 1631 3431 
Q 1906 3584 2284 3584 
Q 2666 3584 2933 3390 
Q 3200 3197 3328 2828 
z
" transform="scale(0.015625)"/>
      <path id="DejaVuSans-69" d="M 603 3500 
L 1178 3500 
L 1178 0 
L 603 0 
L 603 3500 
z
M 603 4863 
L 1178 4863 
L 1178 4134 
L 603 4134 
L 603 4863 
z
" transform="scale(0.015625)"/>
      <path id="DejaVuSans-61" d="M 2194 1759 
Q 1497 1759 1228 1600 
Q 959 1441 959 1056 
Q 959 750 1161 570 
Q 1363 391 1709 391 
Q 2188 391 2477 730 
Q 2766 1069 2766 1631 
L 2766 1759 
L 2194 1759 
z
M 3341 1997 
L 3341 0 
L 2766 0 
L 2766 531 
Q 2569 213 2275 61 
Q 1981 -91 1556 -91 
Q 1019 -91 701 211 
Q 384 513 384 1019 
Q 384 1609 779 1909 
Q 1175 2209 1959 2209 
L 2766 2209 
L 2766 2266 
Q 2766 2663 2505 2880 
Q 2244 3097 1772 3097 
Q 1472 3097 1187 3025 
Q 903 2953 641 2809 
L 641 3341 
Q 956 3463 1253 3523 
Q 1550 3584 1831 3584 
Q 2591 3584 2966 3190 
Q 3341 2797 3341 1997 
z
" transform="scale(0.015625)"/>
      <path id="DejaVuSans-20" transform="scale(0.015625)"/>
      <path id="DejaVuSans-52" d="M 2841 2188 
Q 3044 2119 3236 1894 
Q 3428 1669 3622 1275 
L 4263 0 
L 3584 0 
L 2988 1197 
Q 2756 1666 2539 1819 
Q 2322 1972 1947 1972 
L 1259 1972 
L 1259 0 
L 628 0 
L 628 4666 
L 2053 4666 
Q 2853 4666 3247 4331 
Q 3641 3997 3641 3322 
Q 3641 2881 3436 2590 
Q 3231 2300 2841 2188 
z
M 1259 4147 
L 1259 2491 
L 2053 2491 
Q 2509 2491 2742 2702 
Q 2975 2913 2975 3322 
Q 2975 3731 2742 3939 
Q 2509 4147 2053 4147 
L 1259 4147 
z
" transform="scale(0.015625)"/>
      <path id="DejaVuSans-65" d="M 3597 1894 
L 3597 1613 
L 953 1613 
Q 991 1019 1311 708 
Q 1631 397 2203 397 
Q 2534 397 2845 478 
Q 3156 559 3463 722 
L 3463 178 
Q 3153 47 2828 -22 
Q 2503 -91 2169 -91 
Q 1331 -91 842 396 
Q 353 884 353 1716 
Q 353 2575 817 3079 
Q 1281 3584 2069 3584 
Q 2775 3584 3186 3129 
Q 3597 2675 3597 1894 
z
M 3022 2063 
Q 3016 2534 2758 2815 
Q 2500 3097 2075 3097 
Q 1594 3097 1305 2825 
Q 1016 2553 972 2059 
L 3022 2063 
z
" transform="scale(0.015625)"/>
      <path id="DejaVuSans-67" d="M 2906 1791 
Q 2906 2416 2648 2759 
Q 2391 3103 1925 3103 
Q 1463 3103 1205 2759 
Q 947 2416 947 1791 
Q 947 1169 1205 825 
Q 1463 481 1925 481 
Q 2391 481 2648 825 
Q 2906 1169 2906 1791 
z
M 3481 434 
Q 3481 -459 3084 -895 
Q 2688 -1331 1869 -1331 
Q 1566 -1331 1297 -1286 
Q 1028 -1241 775 -1147 
L 775 -588 
Q 1028 -725 1275 -790 
Q 1522 -856 1778 -856 
Q 2344 -856 2625 -561 
Q 2906 -266 2906 331 
L 2906 616 
Q 2728 306 2450 153 
Q 2172 0 1784 0 
Q 1141 0 747 490 
Q 353 981 353 1791 
Q 353 2603 747 3093 
Q 1141 3584 1784 3584 
Q 2172 3584 2450 3431 
Q 2728 3278 2906 2969 
L 2906 3500 
L 3481 3500 
L 3481 434 
z
" transform="scale(0.015625)"/>
      <path id="DejaVuSans-72" d="M 2631 2963 
Q 2534 3019 2420 3045 
Q 2306 3072 2169 3072 
Q 1681 3072 1420 2755 
Q 1159 2438 1159 1844 
L 1159 0 
L 581 0 
L 581 3500 
L 1159 3500 
L 1159 2956 
Q 1341 3275 1631 3429 
Q 1922 3584 2338 3584 
Q 2397 3584 2469 3576 
Q 2541 3569 2628 3553 
L 2631 2963 
z
" transform="scale(0.015625)"/>
      <path id="DejaVuSans-73" d="M 2834 3397 
L 2834 2853 
Q 2591 2978 2328 3040 
Q 2066 3103 1784 3103 
Q 1356 3103 1142 2972 
Q 928 2841 928 2578 
Q 928 2378 1081 2264 
Q 1234 2150 1697 2047 
L 1894 2003 
Q 2506 1872 2764 1633 
Q 3022 1394 3022 966 
Q 3022 478 2636 193 
Q 2250 -91 1575 -91 
Q 1294 -91 989 -36 
Q 684 19 347 128 
L 347 722 
Q 666 556 975 473 
Q 1284 391 1588 391 
Q 1994 391 2212 530 
Q 2431 669 2431 922 
Q 2431 1156 2273 1281 
Q 2116 1406 1581 1522 
L 1381 1569 
Q 847 1681 609 1914 
Q 372 2147 372 2553 
Q 372 3047 722 3315 
Q 1072 3584 1716 3584 
Q 2034 3584 2315 3537 
Q 2597 3491 2834 3397 
z
" transform="scale(0.015625)"/>
      <path id="DejaVuSans-2d" d="M 313 2009 
L 1997 2009 
L 1997 1497 
L 313 1497 
L 313 2009 
z
" transform="scale(0.015625)"/>
      <path id="DejaVuSans-44" d="M 1259 4147 
L 1259 519 
L 2022 519 
Q 2988 519 3436 956 
Q 3884 1394 3884 2338 
Q 3884 3275 3436 3711 
Q 2988 4147 2022 4147 
L 1259 4147 
z
M 628 4666 
L 1925 4666 
Q 3281 4666 3915 4102 
Q 4550 3538 4550 2338 
Q 4550 1131 3912 565 
Q 3275 0 1925 0 
L 628 0 
L 628 4666 
z
" transform="scale(0.015625)"/>
     </defs>
     <use xlink:href="#DejaVuSans-50"/>
     <use xlink:href="#DejaVuSans-6f" x="56.677734"/>
     <use xlink:href="#DejaVuSans-6c" x="117.859375"/>
     <use xlink:href="#DejaVuSans-79" x="145.642578"/>
     <use xlink:href="#DejaVuSans-6e" x="204.822266"/>
     <use xlink:href="#DejaVuSans-6f" x="268.201172"/>
     <use xlink:href="#DejaVuSans-6d" x="329.382812"/>
     <use xlink:href="#DejaVuSans-69" x="426.794922"/>
     <use xlink:href="#DejaVuSans-61" x="454.578125"/>
     <use xlink:href="#DejaVuSans-6c" x="515.857422"/>
     <use xlink:href="#DejaVuSans-20" x="543.640625"/>
     <use xlink:href="#DejaVuSans-52" x="575.427734"/>
     <use xlink:href="#DejaVuSans-65" x="640.410156"/>
     <use xlink:href="#DejaVuSans-67" x="701.933594"/>
     <use xlink:href="#DejaVuSans-72" x="765.410156"/>
     <use xlink:href="#DejaVuSans-65" x="804.273438"/>
     <use xlink:href="#DejaVuSans-73" x="865.796875"/>
     <use xlink:href="#DejaVuSans-73" x="917.896484"/>
     <use xlink:href="#DejaVuSans-69" x="969.996094"/>
     <use xlink:href="#DejaVuSans-6f" x="997.779297"/>
     <use xlink:href="#DejaVuSans-6e" x="1058.960938"/>
     <use xlink:href="#DejaVuSans-20" x="1122.339844"/>
     <use xlink:href="#DejaVuSans-2d" x="1154.126953"/>
     <use xlink:href="#DejaVuSans-20" x="1190.210938"/>
     <use xlink:href="#DejaVuSans-44" x="1221.998047"/>
     <use xlink:href="#DejaVuSans-65" x="1299"/>
     <use xlink:href="#DejaVuSans-67" x="1360.523438"/>
     <use xlink:href="#DejaVuSans-72" x="1424"/>
     <use xlink:href="#DejaVuSans-65" x="1462.863281"/>
     <use xlink:href="#DejaVuSans-65" x="1524.386719"/>
     <use xlink:href="#DejaVuSans-20" x="1585.910156"/>
     <use xlink:href="#DejaVuSans-31" x="1617.697266"/>
     <use xlink:href="#DejaVuSans-30" x="1681.320312"/>
     <use xlink:href="#DejaVuSans-30" x="1744.943359"/>
    </g>
   </g>
   <g id="legend_1">
    <g id="patch_7">
     <path d="M 344.391875 302.584 
L 407.72 302.584 
Q 409.72 302.584 409.72 300.584 
L 409.72 272.22775 
Q 409.72 270.22775 407.72 270.22775 
L 344.391875 270.22775 
Q 342.391875 270.22775 342.391875 272.22775 
L 342.391875 300.584 
Q 342.391875 302.584 344.391875 302.584 
z
" style="fill: #ffffff; opacity: 0.8; stroke: #cccccc; stroke-linejoin: miter"/>
    </g>
    <g id="PathCollection_2">
     <g>
      <use xlink:href="#m413680534e" x="356.391875" y="279.201187" style="fill: #0000ff; stroke: #0000ff"/>
     </g>
    </g>
    <g id="text_17">
     <!-- Actual -->
     <g transform="translate(374.391875 281.826187) scale(0.1 -0.1)">
      <defs>
       <path id="DejaVuSans-41" d="M 2188 4044 
L 1331 1722 
L 3047 1722 
L 2188 4044 
z
M 1831 4666 
L 2547 4666 
L 4325 0 
L 3669 0 
L 3244 1197 
L 1141 1197 
L 716 0 
L 50 0 
L 1831 4666 
z
" transform="scale(0.015625)"/>
       <path id="DejaVuSans-63" d="M 3122 3366 
L 3122 2828 
Q 2878 2963 2633 3030 
Q 2388 3097 2138 3097 
Q 1578 3097 1268 2742 
Q 959 2388 959 1747 
Q 959 1106 1268 751 
Q 1578 397 2138 397 
Q 2388 397 2633 464 
Q 2878 531 3122 666 
L 3122 134 
Q 2881 22 2623 -34 
Q 2366 -91 2075 -91 
Q 1284 -91 818 406 
Q 353 903 353 1747 
Q 353 2603 823 3093 
Q 1294 3584 2113 3584 
Q 2378 3584 2631 3529 
Q 2884 3475 3122 3366 
z
" transform="scale(0.015625)"/>
       <path id="DejaVuSans-74" d="M 1172 4494 
L 1172 3500 
L 2356 3500 
L 2356 3053 
L 1172 3053 
L 1172 1153 
Q 1172 725 1289 603 
Q 1406 481 1766 481 
L 2356 481 
L 2356 0 
L 1766 0 
Q 1100 0 847 248 
Q 594 497 594 1153 
L 594 3053 
L 172 3053 
L 172 3500 
L 594 3500 
L 594 4494 
L 1172 4494 
z
" transform="scale(0.015625)"/>
       <path id="DejaVuSans-75" d="M 544 1381 
L 544 3500 
L 1119 3500 
L 1119 1403 
Q 1119 906 1312 657 
Q 1506 409 1894 409 
Q 2359 409 2629 706 
Q 2900 1003 2900 1516 
L 2900 3500 
L 3475 3500 
L 3475 0 
L 2900 0 
L 2900 538 
Q 2691 219 2414 64 
Q 2138 -91 1772 -91 
Q 1169 -91 856 284 
Q 544 659 544 1381 
z
M 1991 3584 
L 1991 3584 
z
" transform="scale(0.015625)"/>
      </defs>
      <use xlink:href="#DejaVuSans-41"/>
      <use xlink:href="#DejaVuSans-63" x="66.658203"/>
      <use xlink:href="#DejaVuSans-74" x="121.638672"/>
      <use xlink:href="#DejaVuSans-75" x="160.847656"/>
      <use xlink:href="#DejaVuSans-61" x="224.226562"/>
      <use xlink:href="#DejaVuSans-6c" x="285.505859"/>
     </g>
    </g>
    <g id="line2d_15">
     <path d="M 346.391875 293.004312 
L 356.391875 293.004312 
L 366.391875 293.004312 
" style="fill: none; stroke: #008000; stroke-width: 1.5; stroke-linecap: square"/>
    </g>
    <g id="text_18">
     <!-- l1 -->
     <g transform="translate(374.391875 296.504312) scale(0.1 -0.1)">
      <use xlink:href="#DejaVuSans-6c"/>
      <use xlink:href="#DejaVuSans-31" x="27.783203"/>
     </g>
    </g>
   </g>
  </g>
 </g>
 <defs>
  <clipPath id="pdfe468c1ac">
   <rect x="57.6" y="41.472" width="357.12" height="266.112"/>
  </clipPath>
 </defs>
</svg>
